<svg preserveAspectRatio="none" width="100%" height="100%" overflow="visible" style="display: block;" viewBox="0 0 55 55" fill="none" xmlns="http://www.w3.org/2000/svg">
<path id="Vector" d="M54.0292 44.9542L31.3292 22.2542C33.6542 16.4042 32.4542 9.50418 27.7292 4.75418C21.9792 -0.995824 13.0292 -1.52082 6.65418 3.12918L16.2542 12.7542L12.7042 16.2792L3.12918 6.70418C-1.52082 13.0542 -0.995824 22.0292 4.75418 27.7542C9.40418 32.4042 16.1792 33.6292 21.9792 31.4542L44.7542 54.2292C45.7292 55.2042 47.3042 55.2042 48.2792 54.2292L54.0292 48.4792C55.0292 47.5292 55.0292 45.9542 54.0292 44.9542ZM46.5292 48.9542L22.8792 25.3042C21.3542 26.4292 19.6542 27.1042 17.8792 27.3542C14.4792 27.8542 10.9042 26.8292 8.30418 24.2292C5.92918 21.8792 4.82918 18.7292 5.00418 15.6292L12.7292 23.3542L23.3292 12.7542L15.6042 5.02918C18.7042 4.85418 21.8292 5.95418 24.2042 8.30418C26.9042 11.0042 27.9292 14.7292 27.3042 18.2042C27.0042 19.9792 26.2542 21.6292 25.1042 23.1042L48.7292 46.7292L46.5292 48.9542Z" fill="var(--fill-0, #1D4299)"/>
</svg>
