<svg preserveAspectRatio="none" width="100%" height="100%" overflow="visible" style="display: block;" viewBox="0 0 50 50" fill="none" xmlns="http://www.w3.org/2000/svg">
<g id="Vector">
<path d="M25 50C11.225 50 0 38.775 0 25C0 11.225 11.225 0 25 0C38.775 0 50 10.1 50 22.5C50 30.775 43.275 37.5 35 37.5H30.575C29.875 37.5 29.325 38.05 29.325 38.75C29.325 39.05 29.45 39.325 29.65 39.575C30.675 40.75 31.25 42.225 31.25 43.75C31.25 47.2 28.45 50 25 50ZM25 5C13.975 5 5 13.975 5 25C5 36.025 13.975 45 25 45C25.7 45 26.25 44.45 26.25 43.75C26.25 43.35 26.05 43.05 25.9 42.875C24.875 41.725 24.325 40.25 24.325 38.75C24.325 35.3 27.125 32.5 30.575 32.5H35C40.525 32.5 45 28.025 45 22.5C45 12.85 36.025 5 25 5Z" fill="var(--fill-0, #1D4299)"/>
<path d="M11.25 27.5C13.3211 27.5 15 25.8211 15 23.75C15 21.6789 13.3211 20 11.25 20C9.17893 20 7.5 21.6789 7.5 23.75C7.5 25.8211 9.17893 27.5 11.25 27.5Z" fill="var(--fill-0, #1D4299)"/>
<path d="M18.75 17.5C20.8211 17.5 22.5 15.8211 22.5 13.75C22.5 11.6789 20.8211 10 18.75 10C16.6789 10 15 11.6789 15 13.75C15 15.8211 16.6789 17.5 18.75 17.5Z" fill="var(--fill-0, #1D4299)"/>
<path d="M31.25 17.5C33.3211 17.5 35 15.8211 35 13.75C35 11.6789 33.3211 10 31.25 10C29.1789 10 27.5 11.6789 27.5 13.75C27.5 15.8211 29.1789 17.5 31.25 17.5Z" fill="var(--fill-0, #1D4299)"/>
<path d="M38.75 27.5C40.8211 27.5 42.5 25.8211 42.5 23.75C42.5 21.6789 40.8211 20 38.75 20C36.6789 20 35 21.6789 35 23.75C35 25.8211 36.6789 27.5 38.75 27.5Z" fill="var(--fill-0, #1D4299)"/>
</g>
</svg>
